<?xml version="1.0" encoding="utf-8"?>
<!-- Generator: Adobe Illustrator 24.0.1, SVG Export Plug-In . SVG Version: 6.00 Build 0)  -->
<svg version="1.1" id="Layer_1" xmlns="http://www.w3.org/2000/svg" xmlns:xlink="http://www.w3.org/1999/xlink" x="0px" y="0px"
	 viewBox="0 0 500 500" style="enable-background:new 0 0 500 500;" xml:space="preserve">
<style type="text/css">
	.st0{fill:#E3A3E2;}
	.st1{fill:#6200EE;}
</style>
<g>
	<path class="st0" d="M277.12,261.64c-2.01-3.08-3.92-6.12-5.94-9.06c-1.91-2.78-3.66-5.76-5.99-8.14
		c-4.91-5.02-11.15-6.35-17.82-5.11c-9.44,1.75-16.89,6.77-21.79,15.23c-4.84,8.35-4,16.58,1.31,24.49c2.14,3.19,4.2,6.43,6.35,9.74
		c-13.27-0.99-29.31-11.04-34.94-29.21c-5.69-18.33,1.22-37.97,16.89-48.5c15.41-10.35,36.09-9.06,50.06,3.19
		C279.94,227.16,282.89,246.91,277.12,261.64z"/>
	<g>
		<path class="st1" d="M321.12,392.07c-3.67-0.4-7.38-0.6-11.01-1.23c-8.6-1.49-17.18-3.12-25.75-4.82
			c-10.12-2.01-20.23-4.09-30.32-6.27c-3.35-0.72-5.98-2.96-8.49-5.19c-7.39-6.55-9.86-16.31-6.06-25.17
			c3.68-8.58,10.6-12.73,19.57-13.16c3.68-0.18,7.41,0.56,11.07,0.88c-0.01-0.02-0.16-0.36-0.37-0.67
			c-12.57-19.32-24.99-38.74-37.77-57.92c-6.69-10.04-3.74-19.67,2.87-25.86c5.5-5.15,11.88-8.02,19.51-7.05
			c4.84,0.62,8.45,3.24,11.13,7.35c5.42,8.33,10.88,16.64,16.32,24.96c2.56,3.91,5.11,7.83,7.73,11.85c0.99-0.72,1.9-1.38,2.96-2.15
			c-1.63-2.53-3.14-5.06-4.85-7.44c-0.85-1.19-0.68-1.92,0.19-2.94c6.74-7.88,14.87-9.07,23.97-4.14c0.5,0.27,0.84,0.89,1.18,1.4
			c1.65,2.51,3.28,5.04,4.98,7.66c1.02-0.74,1.93-1.39,2.97-2.15c-2.32-3.59-4.59-7.11-6.85-10.61c5.26-9.31,15.51-12.56,24.9-7.93
			c1.34,0.66,2.67,1.35,3.94,2.13c2.96,1.82,5.48,4.03,7.43,7.1c7.22,11.38,14.67,22.61,21.97,33.93c2.66,4.12,3.98,8.85,5.13,13.55
			c1.07,4.35,1.58,8.83,2.33,13.26c0.09,0.51,0.17,1.02,0.26,1.53c0,2.1,0,4.19,0,6.29c-0.22,1.7-0.4,3.4-0.66,5.1
			c-1.74,11.77-6.5,22.14-15.16,30.12c-4.71,4.33-10.41,7.59-15.77,11.15c-4.03,2.67-8.51,4.41-13.25,5.32
			c-2.52,0.49-5.07,0.75-7.61,1.12C325.44,392.07,323.28,392.07,321.12,392.07z"/>
		<path class="st1" d="M380.05,251.87c-0.31,3.85-0.56,7.72-0.94,11.56c-0.88,8.77-2.66,17.36-5.13,25.81
			c-0.1,0.33-0.28,0.63-0.51,1.13c-2.73-4.02-5.37-7.88-7.99-11.75c-1.22-1.81-2.98-3.51-3.42-5.51c-0.43-1.94,0.54-4.18,0.85-6.3
			c1.96-13.46,1.91-26.9-0.28-40.35c-3.73-22.89-12.83-43.3-27.4-61.08c-17.74-21.65-40.09-35.95-66.99-42.78
			c-15.14-3.84-30.46-4.7-45.9-2.72c-22.24,2.86-42.39,11.15-60.24,24.96c-21.83,16.89-36.77,38.78-44.85,65.46
			c-4.14,13.67-5.86,27.73-5.28,42.02c1.07,26.29,9.18,50.16,24.49,71.38c12.18,16.87,27.56,29.92,46.01,39.22
			c10.73,5.41,21.89,9.57,33.62,12.05c3.71,0.79,7.54,1.02,11.24,1.85c3.34,0.75,6.61,1.9,9.86,3.02c8.46,2.91,16.9,5.9,25.35,8.87
			c0.53,0.19,1.04,0.43,1.6,0.96c-2.63,0.49-5.24,1.09-7.89,1.44c-3.36,0.44-6.74,0.66-10.11,0.98c-4.11,0-8.23,0-12.34,0
			c-0.66-0.09-1.32-0.23-1.98-0.25c-12.5-0.46-24.68-2.73-36.6-6.57c-18.57-5.98-35.2-15.51-49.92-28.47
			c-10.95-9.65-20.25-20.76-27.87-33.34c-11.19-18.46-17.95-38.46-20.3-60.01c-0.41-3.74-0.63-7.5-0.94-11.25c0-3.25,0-6.5,0-9.74
			c0.24-3.07,0.42-6.15,0.73-9.22c1.45-14.41,4.84-28.31,10.35-41.68c4.92-11.94,11.3-23.02,19.14-33.19
			c11.82-15.33,26.1-27.77,42.84-37.26c16.6-9.4,34.33-15.15,53.2-17.27c3.57-0.4,7.15-0.64,10.73-0.96c3.19,0,6.38,0,9.57,0
			c0.3,0.06,0.6,0.14,0.9,0.17c5.62,0.57,11.28,0.88,16.85,1.75c20.09,3.13,38.61,10.5,55.57,21.93
			c23.14,15.6,40.38,36.32,51.73,62.1c6.04,13.7,9.84,28.05,11.33,43c0.37,3.74,0.62,7.5,0.93,11.25
			C380.05,246,380.05,248.93,380.05,251.87z"/>
		<path class="st1" d="M225.86,329.82c-1.45,2.25-2.86,4.41-4.29,6.63c-39.31-6.45-76.78-45.46-72.14-97.44
			c4.58-51.31,49.92-88.2,99.92-81.61c50.79,6.69,80.15,52.46,77.68,93.34c-2.33,0.17-4.67,0.33-7.07,0.5
			c0.49-27.35-9.09-50.4-29.9-68.11c-15.64-13.31-33.92-19.54-54.3-18.98c-39.82,1.09-72.51,31.2-78.48,70.49
			c-2.24,14.73-0.7,29.12,4.63,43.03c5.31,13.86,13.72,25.43,25.09,34.76C198.41,321.79,211.42,327.49,225.86,329.82z"/>
	</g>
</g>
</svg>
