<?xml version="1.0" encoding="utf-8"?>
<!-- Generator: Adobe Illustrator 24.0.1, SVG Export Plug-In . SVG Version: 6.00 Build 0)  -->
<svg version="1.1" id="Layer_1" xmlns="http://www.w3.org/2000/svg" xmlns:xlink="http://www.w3.org/1999/xlink" x="0px" y="0px"
	 viewBox="0 0 500 500" style="enable-background:new 0 0 500 500;" xml:space="preserve">
<style type="text/css">
	.st0{fill:#6200EE;}
	.st1{fill:#E3A3E2;}
</style>
<g>
	<path class="st0" d="M374.01,287.36c0,0.95,0,1.71,0,2.46c0,19.27,0.02,38.54,0,57.82c-0.03,24.6-17.14,42.96-40.02,42.96
		c-64.44,0-128.88,0-193.32,0c-22.76,0-39.9-18.38-39.91-42.85c-0.02-66.01-0.02-132.01,0.01-198.02
		c0.01-21.2,13.5-38.38,32.81-41.88c2.25-0.41,4.57-0.57,6.86-0.57c64.64-0.03,129.28-0.04,193.92-0.02
		c19.71,0.01,35.62,14.16,39.04,34.89c0.69,4.2,0.6,8.54,0.88,13.07c-6.7,0.87-13.06,1.7-19.79,2.57c0-2.74-0.04-5.24,0.01-7.74
		c0.07-4.28-0.79-8.29-2.97-11.89c-3.73-6.16-9-9.57-15.87-9.82c-3.93-0.14-7.87-0.07-11.81-0.07c-61.03,0.01-122.06,0.03-183.09,0
		c-6.21,0-11.44,2.15-15.58,7.14c-2.98,3.6-4.61,7.84-4.82,12.68c-0.03,0.7-0.05,1.41-0.05,2.12c0,65.79,0.01,131.59-0.02,197.38
		c0,8.32,3.1,14.73,9.71,19.08c2.79,1.84,5.87,2.78,9.16,2.83c0.72,0.01,1.44,0.03,2.17,0.03c64.11,0,128.23-0.02,192.34,0.03
		c8.05,0.01,14.23-3.3,18.34-10.79c1.89-3.43,2.49-7.22,2.48-11.18c-0.05-18.35-0.01-36.71-0.1-55.06
		c-0.01-2.02,0.42-2.79,2.39-2.99C362.45,288.96,368.1,288.12,374.01,287.36z"/>
	<path class="st1" d="M355.38,196.78c11.98,12.88,23.84,25.64,36.2,38.93c-1.29,1.18-2.82,2.39-4.15,3.82
		c-26.32,28.26-52.62,56.55-78.96,84.8c-0.67,0.71-1.76,1.36-2.66,1.37c-11.15,0.08-22.3,0.03-33.45,0.01
		c-0.44,0-0.89-0.09-1.44-0.15c-0.04-0.71-0.11-1.32-0.1-1.94c0.01-11.43,0-22.86,0.11-34.29c0.01-1.04,0.52-2.34,1.21-3.09
		c27.47-29.62,54.99-59.19,82.5-88.76C354.87,197.22,355.13,197.01,355.38,196.78z M298.66,306.82c3.59-0.32,6.84-0.6,10.08-0.91
		c0.24-0.02,0.52-0.17,0.69-0.36c4.15-4.39,8.29-8.79,12.1-12.84c-6.63-7.2-13.05-14.17-19.64-21.32
		c-3.72,4.06-7.59,8.27-11.44,12.5c-0.27,0.29-0.58,0.65-0.64,1.02c-0.5,3.24-0.94,6.5-1.43,9.93c3.84,0,7.4,0,11.07,0
		C299.2,298.81,298.94,302.6,298.66,306.82z M359.51,216.99c-0.83-1.07-1.38-2.44-2.21-2.67c-1.01-0.28-2.6,0-3.33,0.73
		c-3.84,3.84-7.48,7.91-11.19,11.9c-11.04,11.87-22.08,23.73-33.11,35.61c-1.64,1.76-1.78,3.61-0.45,4.99
		c1.29,1.35,2.87,1.2,4.51-0.48c1.14-1.17,2.23-2.39,3.35-3.58c13.45-14.46,26.91-28.92,40.34-43.4
		C358.15,219.28,358.67,218.23,359.51,216.99z"/>
	<path class="st0" d="M239.37,191.32c-27.95,0-55.89-0.01-83.84,0.01c-2.88,0-5.62-0.33-7.94-2.44c-3.13-2.87-4.34-7.36-3.02-11.49
		c1.31-4.11,4.84-6.91,8.94-7.08c0.39-0.02,0.79-0.01,1.18-0.01c56.42,0,112.83,0,169.25,0c5.84,0,9.97,3.71,10.53,9.4
		c0.57,5.78-3.33,10.94-8.71,11.49c-1.11,0.11-2.23,0.11-3.34,0.11C294.74,191.32,267.05,191.32,239.37,191.32z"/>
	<path class="st0" d="M216.31,254.15c-20.6,0-41.19,0.01-61.79-0.01c-5.79-0.01-10.12-4.12-10.44-9.8
		c-0.33-5.93,3.71-10.84,9.26-11.25c0.52-0.04,1.05-0.03,1.57-0.03c41,0,81.99,0.01,122.99-0.02c2.86,0,5.46,0.65,7.64,2.75
		c2.92,2.82,4.02,7.26,2.67,11.21c-1.48,4.34-4.5,6.62-8.73,7.09c-0.78,0.09-1.57,0.04-2.36,0.04
		C256.84,254.15,236.58,254.15,216.31,254.15z"/>
	<path class="st0" d="M183.82,317.03c-10.03,0-20.07,0.11-30.1-0.04c-7.48-0.11-12-8.45-8.48-15.4c1.77-3.49,4.59-5.37,8.3-5.49
		c3.08-0.1,6.16-0.04,9.24-0.04c16.98,0,33.97-0.02,50.95,0.01c5.68,0.01,9.91,4.11,10.23,9.76c0.36,6.26-3.96,11.16-10.05,11.19
		c-10.03,0.06-20.06,0.02-30.1,0.02C183.82,317.04,183.82,317.03,183.82,317.03z"/>
	<path class="st1" d="M399.43,226.08c-11.82-12.75-23.57-25.41-35.71-38.5c1.09-1.03,2.46-2.21,3.71-3.53
		c3.28-3.46,6.49-6.98,9.75-10.46c4.02-4.29,9.06-4.36,13.06-0.08c7.59,8.1,15.15,16.22,22.68,24.38c3.84,4.17,3.86,9.56,0.06,13.73
		c-4.22,4.63-8.52,9.19-12.79,13.77C399.91,225.68,399.6,225.93,399.43,226.08z"/>
</g>
</svg>
