<?xml version="1.0" encoding="utf-8"?>
<!-- Generator: Adobe Illustrator 24.0.1, SVG Export Plug-In . SVG Version: 6.00 Build 0)  -->
<svg version="1.1" id="Layer_1" xmlns="http://www.w3.org/2000/svg" xmlns:xlink="http://www.w3.org/1999/xlink" x="0px" y="0px"
	 viewBox="0 0 500 500" style="enable-background:new 0 0 500 500;" xml:space="preserve">
<style type="text/css">
	.st0{fill:#E3A3E2;}
	.st1{fill:#6200EE;}
</style>
<g>
	<path class="st0" d="M319.4,345.48c0-2.05,0-3.25,0-4.45c0-48.76-0.02-97.52,0.04-146.29c0-2.52-0.67-4.32-2.5-6.13
		c-11.74-11.56-23.35-23.25-35.01-34.89c-0.75-0.75-1.57-1.43-2.9-2.65c0,27.11,0,53.53,0,80.19c-1.43,0.09-2.51,0.22-3.59,0.22
		c-15.36,0.01-30.73-0.06-46.09,0.07c-2.81,0.02-3.53-0.85-3.52-3.6c0.09-37.52,0.03-75.04,0.14-112.55c0-1.56,0.91-3.35,1.92-4.61
		c1.72-2.16,3.84-4.02,5.83-5.97c11.2-10.95,26.42-10.88,37.47,0.23c28.58,28.73,57.13,57.49,85.68,86.24
		c12.87,12.95,25.72,25.92,38.58,38.87c11.75,11.83,11.83,26.96,0.15,38.73c-24.39,24.58-48.79,49.14-73.19,73.7
		C321.64,343.38,320.82,344.12,319.4,345.48z"/>
	<path class="st1" d="M185.38,154.04c0,1.87,0,3.18,0,4.48c0,49.22,0.03,98.43-0.06,147.65c-0.01,3.12,0.8,5.37,3.07,7.59
		c11.53,11.3,22.89,22.78,34.31,34.19c0.78,0.78,1.61,1.51,3.05,2.85c0.1-1.88,0.22-3.11,0.22-4.34
		c0.01-24.05,0.06-48.11-0.06-72.16c-0.02-3.21,0.79-4.04,4.11-3.99c14.81,0.21,29.62,0.04,44.43,0.01c1.31,0,2.63,0,4.29,0
		c0.07,1.51,0.18,2.68,0.18,3.85c0.01,36.3-0.01,72.6,0.05,108.9c0,2.31-0.61,4-2.33,5.54c-2.16,1.93-4.09,4.09-6.15,6.13
		c-10.39,10.23-25.91,10.4-36.23,0.04c-42.13-42.29-84.19-84.63-126.19-127.04c-9.89-9.99-10.25-25.68-0.53-35.59
		c25.35-25.83,50.95-51.41,76.46-77.08C184.22,154.82,184.52,154.66,185.38,154.04z"/>
</g>
</svg>
