<?xml version="1.0" encoding="utf-8"?>
<!-- Generator: Adobe Illustrator 24.0.1, SVG Export Plug-In . SVG Version: 6.00 Build 0)  -->
<svg version="1.1" id="Layer_1" xmlns="http://www.w3.org/2000/svg" xmlns:xlink="http://www.w3.org/1999/xlink" x="0px" y="0px"
	 viewBox="0 0 500 500" style="enable-background:new 0 0 500 500;" xml:space="preserve">
<style type="text/css">
	.st0{fill:#6200EE;}
	.st1{fill:#E3A3E2;}
</style>
<g>
	<g>
		<g>
			<path class="st0" d="M253.33,120.38c-74.54,0-135.19,60.64-135.19,135.19c0,74.54,60.65,135.19,135.19,135.19
				s135.19-60.65,135.19-135.19C388.52,181.03,327.87,120.38,253.33,120.38z M266.8,329.92h-27.04v-94.63h27.04V329.92z
				 M266.8,215.01h-27.04v-20.28h27.04V215.01z"/>
		</g>
	</g>
	<path class="st1" d="M407.62,326.29l19.45,18.79l9.4-9.72c40.99-42.45,40.99-111.52,0-153.97l-9.4-9.72l-19.45,18.79l9.39,9.72
		c31,32.09,31,84.31,0,116.4L407.62,326.29z"/>
	<path class="st1" d="M74.92,345.08l19.45-18.78l-9.39-9.73c-30.98-32.09-30.98-84.31,0-116.4l9.39-9.73l-19.45-18.78l-9.4,9.72
		c-40.98,42.45-40.98,111.52,0,153.97L74.92,345.08z"/>
</g>
</svg>
