<?xml version="1.0" encoding="utf-8"?>
<!-- Generator: Adobe Illustrator 24.0.1, SVG Export Plug-In . SVG Version: 6.00 Build 0)  -->
<svg version="1.1" id="Layer_1" xmlns="http://www.w3.org/2000/svg" xmlns:xlink="http://www.w3.org/1999/xlink" x="0px" y="0px"
	 viewBox="0 0 500 500" style="enable-background:new 0 0 500 500;" xml:space="preserve">
<style type="text/css">
	.st0{fill:#6200EE;}
	.st1{fill:#E3A3E2;}
</style>
<g>
	<path class="st0" d="M273,131.22c37.46,0,51.34-0.07,88.79,0.04c12.64,0.04,20.46,9.15,18.31,20.78
		c-1.6,8.65-8.25,13.97-18.28,14.08c-15.97,0.17-8.36,0.05-24.33,0.05c-58.36,0-101.01,0.02-159.37-0.02
		c-11.15-0.01-17.8-4.55-19.87-13.23c-2.82-11.84,5.15-21.62,18.1-21.66C213.8,131.14,235.54,131.22,273,131.22z"/>
	<path class="st0" d="M272.88,339.77c36,0,48.42-0.02,84.42,0.02c3.18,0,6.43-0.02,9.53,0.58c8.36,1.61,13.72,8.97,13.33,17.83
		c-0.37,8.43-6.07,14.98-14.23,16.21c-2,0.3-4.05,0.32-6.08,0.32c-73.74,0.02-108.18,0.04-181.92-0.01
		c-13.03-0.01-20.26-6.41-20.25-17.45c0-11.01,7.28-17.43,20.31-17.46C214.86,339.72,236.01,339.77,272.88,339.77z"/>
	<path class="st1" d="M96.45,149.38c0.2-14.1,11.63-25.13,25.82-24.93c14.08,0.2,25.16,11.68,24.94,25.84
		c-0.21,14.06-11.7,25.14-25.85,24.94C107.29,175.04,96.25,163.58,96.45,149.38z"/>
	<path class="st1" d="M96.45,253.78c0.3-14.12,11.8-25.02,26.03-24.69c14.07,0.33,25.05,11.9,24.73,26.06
		c-0.32,14.05-11.92,25.04-26.07,24.71C107.07,279.53,96.15,267.99,96.45,253.78z"/>
	<path class="st1" d="M96.45,358.02c0.23-14.14,11.66-25.08,25.92-24.78c14.14,0.3,25.12,11.75,24.85,25.93
		c-0.27,13.96-12.11,25.34-25.98,24.98C107.23,383.78,96.22,372.18,96.45,358.02z"/>
	<path class="st0" d="M273,238.82c37.46,0,51.34-0.07,88.79,0.04c12.64,0.04,20.46,9.15,18.31,20.78
		c-1.6,8.65-8.25,13.97-18.28,14.08c-15.97,0.17-8.36,0.05-24.33,0.05c-58.36,0-101.01,0.02-159.37-0.02
		c-11.15-0.01-17.8-4.55-19.87-13.23c-2.82-11.84,5.15-21.62,18.1-21.66C213.8,238.75,235.54,238.82,273,238.82z"/>
</g>
</svg>
