<?xml version="1.0" encoding="utf-8"?>
<!-- Generator: Adobe Illustrator 24.0.1, SVG Export Plug-In . SVG Version: 6.00 Build 0)  -->
<svg version="1.1" id="Layer_1" xmlns="http://www.w3.org/2000/svg" xmlns:xlink="http://www.w3.org/1999/xlink" x="0px" y="0px"
	 viewBox="0 0 500 500" style="enable-background:new 0 0 500 500;" xml:space="preserve">
<style type="text/css">
	.st0{fill:#E3A3E2;}
	.st1{fill:#6200EE;}
</style>
<g>
	<path class="st0" d="M125.41,129.27h30c14.42,0,26.1,11.69,26.1,26.1v0.01c0,14.42-11.69,26.1-26.1,26.1h-30
		c-14.42,0-26.1-11.69-26.1-26.1v-0.01C99.31,140.96,110.99,129.27,125.41,129.27z"/>
	<path class="st1" d="M364.75,352.6l-65.3-97.95l-42.4,63.59c-4.44,6.65-11.69,10.91-19.66,11.55c-7.99,0.62-15.81-2.43-21.24-8.31
		l-23.91-25.88l-46.35,58.69c-8.93,11.31-25.35,13.24-36.66,4.31l0,0c-11.31-8.93-13.24-25.35-4.31-36.66l65.27-82.66
		c4.73-5.99,11.84-9.61,19.46-9.9c7.89-0.4,15.02,2.77,20.19,8.36L232,261.7l45.72-68.59c10.33-15.5,33.11-15.5,43.44,0
		l87.02,130.53c8,11.99,4.76,28.2-7.24,36.2l0,0C388.95,367.83,372.74,364.59,364.75,352.6z"/>
</g>
</svg>
