<?xml version="1.0" encoding="utf-8"?>
<!-- Generator: Adobe Illustrator 24.0.1, SVG Export Plug-In . SVG Version: 6.00 Build 0)  -->
<svg version="1.1" id="Layer_1" xmlns="http://www.w3.org/2000/svg" xmlns:xlink="http://www.w3.org/1999/xlink" x="0px" y="0px"
	 viewBox="0 0 500 500" style="enable-background:new 0 0 500 500;" xml:space="preserve">
<style type="text/css">
	.st0{fill:#E3A3E2;}
	.st1{fill:#6200EE;}
</style>
<g>
	<g>
		<g>
			<g>
				<path class="st0" d="M100.94,136.36h15.97c7.68,0,13.9,6.22,13.9,13.9v0c0,7.68-6.22,13.9-13.9,13.9h-15.97
					c-7.68,0-13.9-6.22-13.9-13.9v0C87.04,142.58,93.26,136.36,100.94,136.36z"/>
			</g>
			<path class="st0" d="M228.39,255.28l-34.77-52.16l-22.58,33.86c-2.36,3.54-6.22,5.81-10.47,6.15c-4.26,0.33-8.42-1.3-11.31-4.43
				l-12.73-13.78l-24.68,31.25c-4.76,6.02-13.5,7.05-19.52,2.29l0,0c-6.02-4.76-7.05-13.5-2.3-19.52l34.75-44.02
				c2.52-3.19,6.31-5.12,10.36-5.27c4.2-0.21,8,1.47,10.75,4.45l11.8,12.76l24.35-36.52c5.5-8.25,17.63-8.25,23.13,0l46.34,69.51
				c4.26,6.39,2.53,15.02-3.85,19.28l0,0C241.27,263.39,232.64,261.67,228.39,255.28z"/>
		</g>
	</g>
	<path class="st1" d="M86.32,332.25c0-7.33,0-14.36,0-21.62c105.28,0,210.36,0,315.8,0c0,7.03,0,14.17,0,21.62
		C297.05,332.25,191.87,332.25,86.32,332.25z"/>
	<path class="st1" d="M85.44,373.91c0-7.36,0-14.39,0-21.64c105.29,0,210.37,0,315.8,0c0,7.06,0,14.2,0,21.64
		C296.15,373.91,190.96,373.91,85.44,373.91z"/>
	<path class="st1" d="M270.66,166.55c0-7.37,0-14.4,0-21.64c43.85,0,87.49,0,131.48,0c0,7.07,0,14.2,0,21.64
		C358.47,166.55,314.73,166.55,270.66,166.55z"/>
	<path class="st1" d="M403.18,191.97c0,7.3,0,14.33,0,21.6c-43.93,0-87.68,0-131.64,0c0-7.22,0-14.25,0-21.6
		C315.3,191.97,359.04,191.97,403.18,191.97z"/>
	<path class="st1" d="M404.05,241.52c0,7.23,0,14.26,0,21.6c-43.77,0-87.51,0-131.54,0c0-7.1,0-14.23,0-21.6
		C316.35,241.52,360.09,241.52,404.05,241.52z"/>
</g>
</svg>
