<?xml version="1.0" encoding="utf-8"?>
<!-- Generator: Adobe Illustrator 24.0.1, SVG Export Plug-In . SVG Version: 6.00 Build 0)  -->
<svg version="1.1" id="Layer_1" xmlns="http://www.w3.org/2000/svg" xmlns:xlink="http://www.w3.org/1999/xlink" x="0px" y="0px"
	 viewBox="0 0 500 500" style="enable-background:new 0 0 500 500;" xml:space="preserve">
<style type="text/css">
	.st0{fill-rule:evenodd;clip-rule:evenodd;fill:url(#SVGID_1_);}
	.st1{fill-rule:evenodd;clip-rule:evenodd;fill:#FFFFFF;}
	.st2{fill-rule:evenodd;clip-rule:evenodd;fill:url(#SVGID_2_);}
	.st3{fill-rule:evenodd;clip-rule:evenodd;fill:url(#SVGID_3_);}
</style>
<g>
	<linearGradient id="SVGID_1_" gradientUnits="userSpaceOnUse" x1="307.7881" y1="117.2638" x2="224.6517" y2="335.7633">
		<stop  offset="0" style="stop-color:#FFFFFF"/>
		<stop  offset="0.5615" style="stop-color:#D1D3D4"/>
	</linearGradient>
	<path class="st0" d="M249.43,115.11L249.43,115.11l52.46,101.81c1.36,2.07,0.93,5.03-0.1,6.7c-0.95,1.52-3.49,3.03-5.85,2.89
		h-50.62c-17.9,2.08-26.69,12.25-26.38,30.52c2.41,15.47,12,24.11,28.78,25.91c43.46,0.11,86.93,0.22,130.39,0.33
		c10.01-0.86,15.46-9.72,12.07-19.03L304.49,97.93l-23.47-45.55c-3.19-6.61-5.17-10.69-5.91-12.26
		c-9.42-15.03-22.12-19.54-38.1-13.55c-7.28,2.35-14.17,11.45-20.67,27.3L113.76,252.98c-1.14,3.67-1.75,7.57-1.75,11.61
		c0,21.62,17.53,39.15,39.15,39.15h0.36l97.55-189.33L249.43,115.11z"/>
	<path class="st1" d="M106.33,380.75c-17.5,0.04-31.27-7.23-41.29-21.81c-1.44-2.37-4.84-2.05-6.02,0.28
		c-26.62,51.67-39.93,77.51-39.93,77.51c-3.59,13.21-0.21,24.03,10.15,32.47c15.38,9.5,29.56,6.47,42.53-9.08
		c19.86-39.33,32.36-64.09,37.51-74.28C110.36,384.44,109.66,380.95,106.33,380.75z"/>
	<path class="st1" d="M374.42,303.74l-222.9,0c-0.12,0-0.24,0-0.36,0c-21.62,0-39.15-17.53-39.15-39.15c0-4.04,0.61-7.94,1.75-11.61
		L79.58,319.3c-6.04,14.65-2.66,26.99,10.14,37.02c6.51,3.5,10.76,4.27,13.73,4.23h159.37c36.21,0,72.41,0,108.62,0
		c3.25,0.12,5.36,1.59,6.57,4.16l26.86,52.66h-0.71c3.23,5.69,5.07,12.27,5.07,19.28c0,18.72-13.14,34.38-30.71,38.24l72.78,0.01
		c29.01-3.41,33.89-26.43,21.97-49.21c-26.69-50.95-44.63-86.5-53.81-106.65C408.96,300.22,392.58,303.74,374.42,303.74z"/>
	<linearGradient id="SVGID_2_" gradientUnits="userSpaceOnUse" x1="118.1495" y1="446.136" x2="409.2291" y2="446.136">
		<stop  offset="0" style="stop-color:#FFFFFF"/>
		<stop  offset="0.5615" style="stop-color:#D1D3D4"/>
	</linearGradient>
	<path class="st2" d="M404.16,417.37H146.91c-18.2,1.45-27.79,11.54-28.76,30.26c1.85,15.7,10.97,24.78,27.36,27.23l233.02,0.03
		c17.56-3.86,30.71-19.52,30.71-38.24C409.23,429.65,407.39,423.07,404.16,417.37z"/>
	<linearGradient id="SVGID_3_" gradientUnits="userSpaceOnUse" x1="317.293" y1="297.2811" x2="239.4859" y2="79.8475">
		<stop  offset="0" style="stop-color:#FFFFFF"/>
		<stop  offset="0.5615" style="stop-color:#D1D3D4"/>
	</linearGradient>
	<path class="st3" d="M330.36,148.14l-25.87-50.21c-0.98-1.07-2.04-2.07-3.16-3c-4.43-1.48-9.16-2.27-14.08-2.27
		c-15.77,0-29.61,8.2-37.51,20.57c-0.33,0.6-0.42,0.71-0.68,1.18l34.55,67.06l18.27,35.46c1.36,2.07,0.93,5.03-0.1,6.7
		c-0.95,1.52-3.49,3.03-5.85,2.89h-50.62c-17.9,2.08-26.69,12.25-26.38,30.52c2.41,15.47,12,24.11,28.78,25.91l130.39,0.33
		c10.01-0.86,15.46-9.72,12.07-19.03L330.36,148.14z"/>
</g>
</svg>
