<?xml version="1.0" encoding="utf-8"?>
<!-- Generator: Adobe Illustrator 24.0.1, SVG Export Plug-In . SVG Version: 6.00 Build 0)  -->
<svg version="1.1" id="Layer_1" xmlns="http://www.w3.org/2000/svg" xmlns:xlink="http://www.w3.org/1999/xlink" x="0px" y="0px"
	 viewBox="0 0 500 500" style="enable-background:new 0 0 500 500;" xml:space="preserve">
<style type="text/css">
	.st0{fill:#6200EE;}
	.st1{fill:#E3A3E2;}
</style>
<g>
	<g>
		<g>
			<path class="st0" d="M148.69,323.79l-5.72-33.33l24.21-23.6c2.14-2.08,2.91-5.2,1.99-8.04c-0.92-2.84-3.38-4.91-6.33-5.34
				l-33.46-4.86l-14.96-30.32c-1.32-2.68-4.05-4.37-7.03-4.37s-5.71,1.69-7.03,4.37l-14.96,30.32l-33.46,4.86
				c-2.95,0.43-5.41,2.5-6.33,5.34c-0.92,2.84-0.15,5.96,1.99,8.04l24.21,23.6l-5.72,33.33c-0.51,2.94,0.71,5.92,3.12,7.67
				c1.37,0.99,2.99,1.5,4.61,1.5c1.25,0,2.5-0.3,3.65-0.9l29.93-15.74l29.93,15.74c2.64,1.39,5.84,1.16,8.26-0.6
				C147.98,329.7,149.19,326.73,148.69,323.79z M129.07,282.1c-1.85,1.8-2.69,4.4-2.26,6.94l3.73,21.73l-19.51-10.26
				c-2.28-1.2-5.01-1.2-7.3,0l-19.51,10.26l3.73-21.73c0.44-2.54-0.41-5.14-2.26-6.94L69.9,266.72l21.82-3.17
				c2.55-0.37,4.76-1.98,5.91-4.29l9.76-19.77l9.76,19.77c1.14,2.31,3.35,3.92,5.91,4.29l21.82,3.17L129.07,282.1z"/>
			<path class="st0" d="M446.39,258.82c-0.92-2.84-3.38-4.91-6.33-5.34l-33.46-4.86l-14.96-30.32c-1.32-2.68-4.05-4.37-7.03-4.37
				s-5.71,1.69-7.03,4.37l-14.96,30.32l-33.46,4.86c-2.95,0.43-5.41,2.5-6.33,5.34c-0.92,2.84-0.15,5.96,1.99,8.04l24.21,23.6
				l-5.72,33.33c-0.51,2.94,0.7,5.92,3.12,7.67c2.42,1.75,5.62,1.99,8.26,0.6l29.93-15.74l29.93,15.74c1.15,0.6,2.4,0.9,3.65,0.9
				c1.63,0,3.24-0.51,4.61-1.5c2.41-1.75,3.63-4.73,3.12-7.67l-5.72-33.33l24.21-23.6C446.55,264.77,447.32,261.66,446.39,258.82z
				 M406.29,282.11c-1.85,1.8-2.69,4.4-2.26,6.94l3.73,21.73l-19.51-10.26c-1.14-0.6-2.4-0.9-3.65-0.9s-2.51,0.3-3.65,0.9
				l-19.51,10.26l3.73-21.73c0.44-2.54-0.41-5.14-2.26-6.94l-15.79-15.39l21.82-3.17c2.55-0.37,4.76-1.98,5.91-4.29l9.76-19.77
				l9.76,19.77c1.14,2.31,3.35,3.92,5.91,4.29l21.82,3.17L406.29,282.11z"/>
			<path class="st0" d="M302.71,297.36l-8.77-51.15l37.16-36.22c2.14-2.08,2.91-5.2,1.99-8.04c-0.92-2.84-3.38-4.91-6.33-5.34
				l-51.36-7.46l-22.97-46.54c-1.32-2.68-4.05-4.37-7.03-4.37c-2.99,0-5.71,1.69-7.03,4.37l-22.97,46.54l-51.36,7.46
				c-2.95,0.43-5.41,2.5-6.33,5.34c-0.92,2.84-0.15,5.96,1.99,8.04l37.16,36.22l-8.77,51.15c-0.51,2.94,0.7,5.92,3.12,7.67
				c2.41,1.75,5.62,1.99,8.26,0.6l45.94-24.15l45.94,24.15c1.15,0.6,2.4,0.9,3.65,0.9c1.63,0,3.24-0.51,4.61-1.5
				C302.01,303.27,303.21,300.3,302.71,297.36z M277.78,244.79l6.78,39.55l-35.52-18.67c-1.14-0.6-2.4-0.9-3.65-0.9
				c-1.25,0-2.51,0.3-3.65,0.9l-35.52,18.67l6.78-39.55c0.44-2.54-0.41-5.14-2.26-6.94l-28.74-28.01l39.71-5.77
				c2.55-0.37,4.76-1.98,5.91-4.29l17.76-35.98l17.76,35.98c1.14,2.31,3.35,3.92,5.91,4.29l39.71,5.77l-28.73,28.01
				C278.19,239.65,277.34,242.25,277.78,244.79z"/>
			<path class="st1" d="M263.24,348.54H154.22c-4.33,0-7.84,3.51-7.84,7.84c0,4.33,3.51,7.84,7.84,7.84h109.02
				c4.33,0,7.84-3.51,7.84-7.84C271.09,352.05,267.58,348.54,263.24,348.54z"/>
			<path class="st0" d="M337.76,348.54h-33.73c-4.33,0-7.84,3.51-7.84,7.84c0,4.33,3.51,7.84,7.84,7.84h33.73
				c4.33,0,7.84-3.51,7.84-7.84C345.6,352.05,342.09,348.54,337.76,348.54z"/>
		</g>
	</g>
</g>
</svg>
