<?xml version="1.0" encoding="utf-8"?>
<!-- Generator: Adobe Illustrator 24.0.1, SVG Export Plug-In . SVG Version: 6.00 Build 0)  -->
<svg version="1.1" id="Layer_1" xmlns="http://www.w3.org/2000/svg" xmlns:xlink="http://www.w3.org/1999/xlink" x="0px" y="0px"
	 viewBox="0 0 500 500" style="enable-background:new 0 0 500 500;" xml:space="preserve">
<style type="text/css">
	.st0{fill:#E3A3E2;}
	.st1{fill:#6200EE;}
</style>
<g>
	<path class="st0" d="M219.12,128.99c2.11,0.79,4.38,1.36,6.3,2.42c5.12,2.84,7.64,7.11,7.97,12.41c0.06,0.94,0.03,1.89,0.03,2.83
		c0,68.56,0,137.11,0,205.67c0,10.9-2.97,14.76-14.3,18.61c-32.26,0-64.53,0-96.79,0c-2.54-1.03-5.25-1.81-7.58-3.13
		c-3.9-2.21-5.65-5.81-6.86-9.62c0-72.3,0-144.59,0-216.89c1.44-3.66,3.23-7.16,7.08-9.33c2.13-1.19,4.54-1.99,6.82-2.96
		C154.24,128.99,186.68,128.99,219.12,128.99z M221.93,249.96c0-34.65,0-69.3,0-103.96c0-5.48-1.71-6.97-7.98-6.97
		c-28.88,0-57.75,0-86.63,0c-6.28,0-8.06,1.59-8.06,7.2c0,69.15,0,138.29,0,207.44c0,5.61,1.79,7.21,8.06,7.21
		c28.79,0,57.57,0,86.36,0c6.64,0,8.25-1.41,8.25-7.21C221.93,319.11,221.93,284.54,221.93,249.96z"/>
	<path class="st1" d="M367.25,128.99c2.91,1.29,6.12,2.23,8.66,3.95c3.84,2.61,5.7,6.44,5.74,10.74
		c0.09,10.39,0.15,20.78-0.01,31.16c-0.12,8-7.57,14.56-16.65,14.59c-30.73,0.08-61.45,0.09-92.18-0.01
		c-9.13-0.03-16.39-6.56-16.57-14.92c-0.23-10.15-0.19-20.3-0.01-30.45c0.13-7.34,5.17-12.68,13.31-14.66
		c0.33-0.08,0.63-0.26,0.94-0.4C302.72,128.99,334.98,128.99,367.25,128.99z M318.94,179.44c14.62,0,29.23,0.01,43.85,0
		c5.54,0,7.52-1.78,7.53-6.73c0.01-9.06,0.02-18.11,0-27.17c-0.01-4.64-2.06-6.49-7.26-6.49c-29.41-0.01-58.82-0.01-88.23,0
		c-5.19,0-7.16,1.73-7.17,6.25c-0.02,9.14-0.01,18.27,0,27.41c0,5.16,1.8,6.73,7.71,6.73C289.89,179.44,304.41,179.44,318.94,179.44
		z"/>
	<path class="st1" d="M270.46,370.93c-2.33-0.93-4.86-1.59-6.95-2.84c-4.92-2.93-7.28-7.26-7.32-12.46
		c-0.08-9.99-0.16-19.99,0.02-29.98c0.16-8.89,7.58-15.18,17.66-15.19c30.1-0.03,60.21-0.03,90.31,0
		c10.12,0.01,17.45,6.56,17.5,15.56c0.05,9.6,0.02,19.2,0.01,28.8c-0.01,8.25-4.61,13.52-13.73,15.79
		c-0.25,0.06-0.47,0.21-0.71,0.32C334.98,370.93,302.72,370.93,270.46,370.93z M318.95,320.49c-14.71,0-29.41-0.01-44.12,0
		c-5.19,0-7.17,1.73-7.18,6.25c-0.02,9.29-0.02,18.59,0,27.88c0.01,4.53,1.98,6.26,7.16,6.27c29.41,0.01,58.82,0.01,88.23,0
		c5.19,0,7.26-1.86,7.27-6.49c0.02-8.98,0.01-17.96,0-26.93c0-5.29-1.88-6.97-7.79-6.97C348.01,320.48,333.48,320.49,318.95,320.49z
		"/>
	<path class="st1" d="M318.93,280.2c-14.79,0-29.58,0.01-44.38,0c-11.18-0.01-18.37-6.35-18.4-16.25c-0.03-9.37-0.04-18.74,0-28.11
		c0.04-9.76,7.26-16.11,18.28-16.11c29.67-0.01,59.34-0.01,89.02,0c11.03,0,18.2,6.36,18.22,16.13c0.02,9.45,0.02,18.9,0,28.35
		c-0.02,9.59-7.26,15.99-18.1,16C348.7,280.22,333.82,280.2,318.93,280.2z M318.94,270.16c14.62,0,29.23,0.01,43.85,0
		c5.54,0,7.53-1.78,7.53-6.73c0.01-9.06,0.01-18.11,0-27.17c-0.01-4.64-2.06-6.49-7.25-6.49c-29.41-0.01-58.82-0.01-88.23,0
		c-5.19,0-7.16,1.73-7.17,6.25c-0.02,9.14-0.01,18.27,0,27.41c0,5.16,1.8,6.73,7.71,6.74C289.88,270.17,304.41,270.16,318.94,270.16
		z"/>
</g>
</svg>
