<?xml version="1.0" encoding="utf-8"?>
<!-- Generator: Adobe Illustrator 24.0.1, SVG Export Plug-In . SVG Version: 6.00 Build 0)  -->
<svg version="1.1" id="Layer_1" xmlns="http://www.w3.org/2000/svg" xmlns:xlink="http://www.w3.org/1999/xlink" x="0px" y="0px"
	 viewBox="0 0 500 500" style="enable-background:new 0 0 500 500;" xml:space="preserve">
<style type="text/css">
	.st0{fill:#6200EE;}
	.st1{fill:#E3A3E2;}
</style>
<g>
	<path class="st0" d="M249.18,328.87c-79.73,3.07-103.42-3.38-99.17-85.49c1.92-50.28-12.54-99.03,40.45-112.04
		c116.35-1.48,163.65-17.38,158.02,78.55c1.13,100.18,7.31,124.11-99.3,118.95C249.18,328.85,249.18,328.86,249.18,328.87z
		 M315.28,229.6c0.01,0,0.01,0,0.02,0c-0.9-63.5,9.01-67.45-41.21-66.03c-84.89,1.52-92.65-10.16-90.94,33.53
		c1.29,106.83-11.92,98.92,49.04,98.81C327.61,294.68,314.51,309.12,315.28,229.6z"/>
	<path class="st0" d="M398.04,232.03c-1.93,23.97,4.56,51.16-3.7,74.65c-7.49,15.09-33.41,21.26-40.51,3.68
		c-5.25-21.5,11.67-14.18,11.12-27.72c-1.22-125.36,4.55-99.31-9.08-114.16c-15.42-35.13,38.47-31.79,41.64-2.59
		C399.08,187.77,397.58,210.12,398.04,232.03z"/>
	<path class="st0" d="M447.65,231.78c-0.92,15.22,1.8,30.99-1.31,48c-6.5,19.06-37.5,24.21-43.27,5.21
		c-3.87-18.51,10.99-15.67,11.49-24.43c-0.86-19.25,1.43-41.7-0.86-60.95c-4.09-3.26-9.13-5.73-10.49-11.49
		c-5.48-31.22,38.89-24.39,43.67-2.15C448.98,200.1,447.03,216.86,447.65,231.78z"/>
	<path class="st0" d="M99.96,232.03c1.93,23.97-4.56,51.16,3.7,74.65c7.49,15.09,33.41,21.26,40.51,3.68
		c5.25-21.5-11.67-14.18-11.12-27.72c1.22-125.36-4.55-99.31,9.08-114.16c15.42-35.13-38.47-31.79-41.64-2.59
		C98.92,187.77,100.42,210.12,99.96,232.03z"/>
	<path class="st0" d="M50.35,231.78c0.92,15.22-1.8,30.99,1.31,48c6.5,19.06,37.5,24.21,43.27,5.21
		c3.87-18.51-10.99-15.67-11.49-24.43c0.86-19.25-1.43-41.7,0.86-60.95c4.09-3.26,9.13-5.73,10.49-11.49
		c5.48-31.22-38.89-24.39-43.67-2.15C49.02,200.1,50.97,216.86,50.35,231.78z"/>
	<path class="st0" d="M216.09,361.76c-1,23.03-32.58,20.94-32.93,0.24C184.35,339.23,215.56,341.32,216.09,361.76z"/>
	<path class="st1" d="M265.68,362.15c-1.43,22.89-33,20.27-32.92-0.54C234.41,339,265.6,341.58,265.68,362.15z"/>
	<path class="st0" d="M299.4,345.54c22.73,1.89,19.61,33.45-1.33,32.88C275.65,376.34,278.68,345.17,299.4,345.54z"/>
</g>
</svg>
