<?xml version="1.0" encoding="utf-8"?>
<!-- Generator: Adobe Illustrator 24.0.1, SVG Export Plug-In . SVG Version: 6.00 Build 0)  -->
<svg version="1.1" id="Layer_1" xmlns="http://www.w3.org/2000/svg" xmlns:xlink="http://www.w3.org/1999/xlink" x="0px" y="0px"
	 viewBox="0 0 500 500" style="enable-background:new 0 0 500 500;" xml:space="preserve">
<style type="text/css">
	.st0{fill:#6200EE;}
	.st1{fill:#E3A3E2;}
</style>
<g>
	<path class="st0" d="M243.71,117.88c39.39,0,78.78-0.01,118.17,0c21.05,0,34.95,13.9,34.96,34.96c0.01,42.47,0.01,84.93,0,127.4
		c-0.01,21.03-13.93,34.94-34.98,34.94c-50.01,0.01-100.02,0.01-150.03,0c-8.79,0-14.39-7.01-11.65-14.58
		c1.59-4.4,4.86-6.77,9.47-7.29c1.13-0.13,2.28-0.05,3.42-0.05c49.55,0,99.1,0,148.66,0c9.14,0,13.19-4.02,13.19-13.11
		c0-42.47,0-84.93,0-127.4c0-8.8-4.17-12.94-13.02-12.94c-79.01,0-158.02,0-237.03,0c-9.07,0-13.06,4.04-13.06,13.23
		c0,42.35,0,84.7,0,127.06c0,9.09,4.07,13.16,13.13,13.17c6.39,0,12.79-0.04,19.18,0.01c6.66,0.06,11.55,4.77,11.52,10.99
		c-0.03,6.22-4.92,10.94-11.61,10.89c-9.01-0.07-18.11,0.43-26.99-0.72c-15.31-1.98-27.02-15.64-27.08-31.11
		c-0.17-44.52-0.2-89.04,0.01-133.56c0.09-17.91,15.01-31.82,33.5-31.85C163.55,117.84,203.63,117.88,243.71,117.88z"/>
	<path class="st0" d="M208.62,337.1c1.4,0,2.76,0,4.12,0c56.97,0,113.94,0,170.91,0.01c1.48,0,3-0.05,4.43,0.24
		c5.38,1.1,9.11,6.09,8.73,11.49c-0.38,5.39-4.79,9.76-10.27,10.14c-1.25,0.09-2.51,0.03-3.77,0.03
		c-56.74,0-113.48,0.02-170.22-0.06c-2.85,0-4.27,0.67-5.62,3.39c-6.03,12.11-16.06,18.6-29.6,18.49
		c-13.38-0.1-23.28-6.61-29.15-18.65c-1.3-2.67-2.72-3.24-5.39-3.22c-13.81,0.12-27.63,0.11-41.44,0.03
		c-8.6-0.05-13.99-8.24-10.35-15.66c2.12-4.32,5.77-6.25,10.55-6.24c14.04,0.02,28.08-0.03,42.13,0.05c2.06,0.01,3.13-0.45,4.1-2.49
		c6-12.61,16.11-19.47,30.09-19.36c13.83,0.11,23.7,7.09,29.69,19.53C207.9,335.54,208.22,336.26,208.62,337.1z M177.73,359.01
		c5.93-0.06,10.85-5.07,10.8-11.01c-0.05-5.99-4.94-10.86-10.92-10.88c-6.1-0.02-11.09,5.07-10.97,11.17
		C166.75,354.25,171.74,359.07,177.73,359.01z"/>
	<path class="st1" d="M202.2,216.31c0-9.12-0.05-18.25,0.01-27.37c0.11-18.2,17.61-28.53,33.42-19.59
		c16.17,9.14,32.26,18.41,48.26,27.85c15.55,9.17,15.67,29.35,0.17,38.56c-16.07,9.54-32.26,18.87-48.55,28.03
		c-15.68,8.82-33.15-1.46-33.29-19.41C202.14,235.02,202.2,225.66,202.2,216.31z M224.42,188.15c0,19.17,0,37.75,0,56.77
		c16.51-9.53,32.6-18.83,49.17-28.4C256.88,206.88,240.84,197.62,224.42,188.15z"/>
</g>
</svg>
